<svg width="60" height="30" viewBox="0 0 60 30" fill="none" xmlns="http://www.w3.org/2000/svg">
<path d="M18.5523 22.4284C17.9941 20.8767 16.8453 20.1006 15.1059 20.1003H14.5571V29.6722H15.1059C16.4503 29.6722 17.4426 29.1423 18.0827 28.0825C18.6221 27.1779 18.8918 26.0269 18.8918 24.6294C18.8905 23.7981 18.7773 23.0645 18.5523 22.4284Z" fill="white"/>
<path d="M9.13354 22.5432C9.69242 24.095 10.8411 24.8709 12.5795 24.8709H13.1282V15.299H12.5795C11.2351 15.299 10.2428 15.8289 9.60263 16.8887C9.06489 17.793 8.79585 18.944 8.79553 20.3418C8.79553 21.1721 8.9082 21.9059 9.13354 22.5432Z" fill="white"/>
<path d="M0 0.0125122H7.30281V2.54761H2.62152V3.81516H6.51059V6.22062H2.62152V7.50257H7.30281V10.0377H0V0.0125122Z" fill="white"/>
<path d="M10.9753 0H20.4243L15.6998 10.2412L10.9753 0ZM15.6998 8.97367L19.6033 0.532945H11.8108L15.6998 8.97367Z" fill="white"/>
<path d="M24.1981 0.0119934H31.5009V2.54709H26.8196V3.81464H30.7087V6.2201H26.8196V7.50205H31.5009V10.0371H24.1981V0.0119934Z" fill="white"/>
<path d="M35.9951 10.0228V0H36.5569L43.5572 6.81307V0H44.0901V10.0252L35.9951 10.0228Z" fill="white"/>
<path d="M51.7387 10.0371V2.54709H47.9504V0.0119934H56.0455V2.54709H52.2572V10.0371H51.7387Z" fill="white"/>
<path d="M4.3063 17.2968C4.94007 17.2968 5.44421 17.3928 5.81871 17.5848C6.24899 17.7947 6.6104 18.1231 6.86046 18.5314C7.11052 18.9396 7.23882 19.4108 7.2303 19.8895C7.23292 20.3509 7.10294 20.8034 6.8558 21.193C6.60465 21.5927 6.25168 21.9183 5.83312 22.1365C6.35286 22.3198 6.80821 22.65 7.14388 23.0871C7.49227 23.5194 7.68055 24.0588 7.67683 24.614C7.68051 25.0991 7.54828 25.5756 7.29512 25.9895C7.04751 26.4006 6.69766 26.7405 6.27964 26.9762C6.05773 27.0954 5.82013 27.1827 5.57385 27.2355C5.31458 27.2931 4.96888 27.3219 4.53676 27.3219H0.100342V17.2968H4.3063Z" fill="white"/>
<path d="M21.195 26.5945C20.4412 25.9367 20.0691 24.9501 20.0787 23.6345H22.4265C22.4169 24.1819 22.5802 24.5996 22.9163 24.8877C23.2523 25.1757 23.7229 25.3198 24.3278 25.3198C24.8272 25.3198 25.2209 25.2382 25.509 25.0749C25.797 24.9117 25.9411 24.662 25.9411 24.3259C25.9411 24.0474 25.7946 23.8458 25.5018 23.7209C25.222 23.6001 24.9298 23.5107 24.6303 23.4545C24.3422 23.4016 24.1646 23.3696 24.0974 23.3584C23.4448 23.2377 22.8039 23.061 22.1817 22.8303C21.6593 22.6361 21.1938 22.3142 20.8277 21.894C20.4628 21.4715 20.2803 20.9146 20.2803 20.2232C20.2803 19.5318 20.4628 18.9436 20.8277 18.4587C21.1926 17.9738 21.6799 17.6113 22.2897 17.3712C22.926 17.1263 23.6029 17.0041 24.2846 17.0111C25.1585 17.0111 25.9147 17.1743 26.5533 17.5008C27.1918 17.8273 27.6936 18.3219 28.0585 18.9844C28.2278 19.2646 28.3404 19.5754 28.3898 19.8991C28.4276 20.1832 28.4468 20.4695 28.4474 20.7561H26.0995C26.0995 20.2376 25.9603 19.8559 25.6818 19.611C25.4033 19.3661 24.9712 19.2437 24.3855 19.2437C23.9149 19.2437 23.55 19.3253 23.2908 19.4886C23.0315 19.6518 22.9018 19.8727 22.9018 20.1512C22.9018 20.4584 23.0747 20.6841 23.4204 20.8281C23.8451 20.996 24.2837 21.1261 24.7312 21.217C25.5954 21.3899 26.27 21.5555 26.7549 21.714C27.2438 21.8751 27.6795 22.1664 28.0153 22.5566C28.3706 22.9599 28.5482 23.5265 28.5482 24.2563C28.5482 24.9477 28.3561 25.543 27.972 26.0424C27.5879 26.5417 27.0814 26.9234 26.4524 27.1875C25.8065 27.4549 25.1133 27.5896 24.4143 27.5836C23.0219 27.582 21.9488 27.2523 21.195 26.5945Z" fill="white"/>
<path d="M34.4538 27.3219V19.8319H30.6655V17.2968H38.7606V19.8319H34.9723V27.3219H34.4538Z" fill="white"/>
<path d="M41.483 17.2968H48.7858V19.8319H44.1046V21.0994H47.9936V23.5049H44.1046V24.7868H48.7858V27.3219H41.483V17.2968Z" fill="white"/>
<path d="M59.6026 27.3219H51.8965V17.2968H55.8C56.6354 17.2968 57.3172 17.4456 57.8453 17.7433C58.3499 18.0177 58.7687 18.4265 59.0553 18.9244C59.3445 19.4281 59.4937 20 59.4874 20.5809C59.4942 21.3101 59.2501 22.0195 58.796 22.5902C58.3608 23.1635 57.7479 23.5763 57.0531 23.7641L59.6026 27.3219ZM52.4294 18.1754V23.3464H56.1313L52.4294 18.1754ZM52.4294 26.789H58.5943L56.4914 23.865L56.0448 23.8794H52.4294V26.789ZM52.8039 17.8297L56.7218 23.3032C57.3508 23.1774 57.9163 22.8361 58.3207 22.3381C58.7365 21.8477 58.9615 21.2238 58.9544 20.5809C58.9602 20.074 58.8256 19.5755 58.5655 19.1405C58.3065 18.7085 57.9257 18.3628 57.4708 18.1466C57.0483 17.9353 56.4962 17.8297 55.8144 17.8297H52.8039Z" fill="white"/>
</svg>
